<?xml version="1.0" encoding="utf-8" ?>
<svg baseProfile="tiny" height="1024" version="1.2" width="1024" xmlns="http://www.w3.org/2000/svg" xmlns:ev="http://www.w3.org/2001/xml-events" xmlns:xlink="http://www.w3.org/1999/xlink"><defs /><path d="M 278,818 L 278,967 L 315,967 L 315,882 L 316,881 L 319,884 L 319,885 L 321,887 L 321,888 L 324,891 L 324,892 L 326,894 L 326,895 L 330,899 L 330,900 L 333,903 L 333,904 L 335,906 L 335,907 L 338,910 L 338,911 L 340,913 L 340,914 L 343,917 L 343,918 L 345,920 L 345,921 L 348,924 L 348,925 L 351,928 L 351,929 L 354,932 L 354,933 L 357,936 L 357,937 L 359,939 L 359,940 L 362,943 L 362,944 L 364,946 L 364,947 L 367,950 L 367,951 L 370,954 L 370,955 L 372,957 L 372,958 L 375,961 L 375,962 L 377,964 L 377,965 L 379,967 L 415,967 L 414,966 L 414,818 L 377,818 L 377,903 L 376,904 L 375,903 L 375,902 L 373,900 L 373,899 L 370,896 L 370,895 L 368,893 L 368,892 L 366,890 L 366,889 L 364,887 L 364,886 L 362,884 L 362,883 L 359,880 L 359,879 L 356,876 L 356,875 L 354,873 L 354,872 L 352,870 L 352,869 L 349,866 L 349,865 L 347,863 L 347,862 L 344,859 L 344,858 L 341,855 L 341,854 L 338,851 L 338,850 L 334,846 L 334,845 L 331,842 L 331,841 L 328,838 L 328,837 L 325,834 L 325,833 L 323,831 L 323,830 L 319,826 L 319,825 L 316,822 L 316,821 L 313,818 Z" fill="black" /><path d="M 748,817 L 748,818 L 749,819 L 749,820 L 751,822 L 751,823 L 753,825 L 753,826 L 755,828 L 755,829 L 757,831 L 757,832 L 760,835 L 760,836 L 761,837 L 761,838 L 763,840 L 763,841 L 765,843 L 765,844 L 767,846 L 767,847 L 769,849 L 769,850 L 771,852 L 771,853 L 773,855 L 773,856 L 775,858 L 775,859 L 777,861 L 777,862 L 779,864 L 779,865 L 781,867 L 781,868 L 783,870 L 783,871 L 786,874 L 786,875 L 787,876 L 787,877 L 789,879 L 789,880 L 791,882 L 791,883 L 794,886 L 794,887 L 795,888 L 795,889 L 793,891 L 793,892 L 790,895 L 790,896 L 788,898 L 788,899 L 785,902 L 785,903 L 782,906 L 782,907 L 780,909 L 780,910 L 778,912 L 778,913 L 776,915 L 776,916 L 774,918 L 774,919 L 771,922 L 771,923 L 769,925 L 769,926 L 767,928 L 767,929 L 765,931 L 765,932 L 763,934 L 763,935 L 760,938 L 760,939 L 758,941 L 758,942 L 756,944 L 756,945 L 754,947 L 754,948 L 752,950 L 752,951 L 749,954 L 749,955 L 747,957 L 747,958 L 745,960 L 745,961 L 743,963 L 743,964 L 741,966 L 741,967 L 785,967 L 785,966 L 787,964 L 787,963 L 789,961 L 789,960 L 791,958 L 791,957 L 793,955 L 793,954 L 795,952 L 795,951 L 797,949 L 797,948 L 799,946 L 799,945 L 801,943 L 801,942 L 802,941 L 802,940 L 804,938 L 804,937 L 806,935 L 806,934 L 808,932 L 808,931 L 809,930 L 809,929 L 811,927 L 811,926 L 812,925 L 812,924 L 814,922 L 814,921 L 815,920 L 816,920 L 818,922 L 818,923 L 820,925 L 820,926 L 822,928 L 822,929 L 824,931 L 824,932 L 826,934 L 826,935 L 829,938 L 829,939 L 831,941 L 831,942 L 833,944 L 833,945 L 835,947 L 835,948 L 837,950 L 837,951 L 839,953 L 839,954 L 841,956 L 841,957 L 843,959 L 843,960 L 845,962 L 845,963 L 847,965 L 847,966 L 848,967 L 895,967 L 893,965 L 893,964 L 890,961 L 890,960 L 888,958 L 888,957 L 886,955 L 886,954 L 884,952 L 884,951 L 882,949 L 882,948 L 880,946 L 880,945 L 877,942 L 877,941 L 875,939 L 875,938 L 873,936 L 873,935 L 870,932 L 870,931 L 868,929 L 868,928 L 865,925 L 865,924 L 863,922 L 863,921 L 861,919 L 861,918 L 859,916 L 859,915 L 857,913 L 857,912 L 854,909 L 854,908 L 852,906 L 852,905 L 850,903 L 850,902 L 847,899 L 847,898 L 845,896 L 845,895 L 843,893 L 843,892 L 841,890 L 841,889 L 840,888 L 840,886 L 843,883 L 843,882 L 845,880 L 845,879 L 848,876 L 848,875 L 851,872 L 851,871 L 854,868 L 854,867 L 857,864 L 857,863 L 860,860 L 860,859 L 863,856 L 863,855 L 866,852 L 866,851 L 869,848 L 869,847 L 872,844 L 872,843 L 875,840 L 875,839 L 878,836 L 878,835 L 881,832 L 881,831 L 884,828 L 884,827 L 887,824 L 887,823 L 889,821 L 889,820 L 891,818 L 891,817 L 890,818 L 847,818 L 846,817 L 844,819 L 844,820 L 843,821 L 843,822 L 841,824 L 841,825 L 839,827 L 839,828 L 838,829 L 838,830 L 836,832 L 836,833 L 835,834 L 835,835 L 833,837 L 833,838 L 831,840 L 831,841 L 830,842 L 830,843 L 828,845 L 828,846 L 826,848 L 826,849 L 825,850 L 825,851 L 823,853 L 823,854 L 822,855 L 822,856 L 819,859 L 818,858 L 818,857 L 816,855 L 816,854 L 815,853 L 815,852 L 813,850 L 813,849 L 811,847 L 811,846 L 810,845 L 810,844 L 808,842 L 808,841 L 807,840 L 807,839 L 806,838 L 806,837 L 804,835 L 804,834 L 802,832 L 802,831 L 801,830 L 801,829 L 799,827 L 799,826 L 798,825 L 798,824 L 796,822 L 796,821 L 794,819 L 794,818 L 749,818 Z" fill="black" /><path d="M 720,817 L 719,818 L 622,818 L 622,967 L 723,967 L 722,966 L 723,965 L 723,936 L 722,935 L 723,934 L 660,934 L 658,932 L 658,924 L 659,923 L 658,922 L 659,921 L 659,912 L 658,911 L 659,910 L 658,909 L 660,907 L 713,907 L 713,878 L 714,877 L 660,877 L 659,876 L 659,851 L 660,850 L 720,850 L 721,849 L 721,820 L 720,819 L 721,818 Z" fill="black" /><path d="M 501,817 L 501,967 L 539,967 L 538,966 L 538,963 L 539,962 L 539,961 L 538,960 L 538,959 L 539,958 L 539,910 L 540,909 L 590,909 L 590,878 L 539,878 L 538,877 L 538,871 L 539,870 L 539,853 L 538,852 L 538,851 L 539,850 L 598,850 L 598,818 L 502,818 Z" fill="black" /><path d="M 474,817 L 473,818 L 438,818 L 438,967 L 474,967 Z" fill="black" /><path d="M 169,817 L 168,818 L 132,818 L 132,967 L 170,967 L 170,908 L 171,907 L 175,911 L 175,912 L 177,914 L 177,915 L 179,917 L 179,918 L 182,921 L 182,922 L 185,925 L 185,926 L 189,930 L 189,931 L 192,934 L 192,935 L 195,938 L 195,939 L 198,942 L 198,943 L 202,947 L 202,948 L 205,951 L 205,952 L 207,954 L 207,955 L 210,958 L 210,959 L 213,962 L 213,963 L 215,965 L 215,966 L 216,967 L 261,967 L 262,968 L 263,968 L 262,967 L 262,966 L 259,963 L 259,962 L 256,959 L 256,958 L 254,956 L 254,955 L 251,952 L 251,951 L 249,949 L 249,948 L 246,945 L 246,944 L 244,942 L 244,941 L 241,938 L 241,937 L 239,935 L 239,934 L 236,931 L 236,930 L 233,927 L 233,926 L 230,923 L 230,922 L 227,919 L 227,918 L 224,915 L 224,914 L 221,911 L 221,910 L 218,907 L 218,906 L 215,903 L 215,902 L 213,900 L 213,899 L 210,896 L 210,895 L 207,892 L 207,891 L 204,888 L 204,886 L 207,883 L 207,882 L 210,879 L 210,878 L 213,875 L 213,874 L 217,870 L 217,869 L 222,864 L 222,863 L 226,859 L 226,858 L 230,854 L 230,853 L 234,849 L 234,848 L 238,844 L 238,843 L 241,840 L 241,839 L 244,836 L 244,835 L 247,832 L 247,831 L 250,828 L 250,827 L 253,824 L 253,823 L 256,820 L 256,819 L 257,818 L 257,817 L 256,818 L 212,818 L 210,820 L 210,821 L 208,823 L 208,824 L 205,827 L 205,828 L 203,830 L 203,831 L 201,833 L 201,834 L 199,836 L 199,837 L 197,839 L 197,840 L 195,842 L 195,843 L 192,846 L 192,847 L 189,850 L 189,851 L 187,853 L 187,854 L 185,856 L 185,857 L 182,860 L 182,861 L 179,864 L 179,865 L 177,867 L 177,868 L 175,870 L 175,871 L 171,875 L 170,875 L 169,874 L 169,872 L 170,871 L 170,818 Z" fill="black" /><path d="M 255,662 L 252,665 L 252,666 L 248,670 L 248,671 L 247,672 L 247,673 L 244,676 L 244,677 L 231,690 L 230,690 L 228,692 L 227,692 L 225,694 L 223,694 L 222,695 L 220,695 L 219,696 L 215,696 L 214,697 L 210,697 L 209,698 L 208,698 L 207,699 L 206,699 L 205,700 L 204,700 L 202,702 L 202,703 L 198,707 L 198,708 L 180,726 L 180,727 L 181,728 L 181,735 L 183,737 L 183,738 L 199,754 L 200,754 L 251,805 L 252,805 L 254,807 L 255,807 L 257,809 L 258,808 L 260,808 L 261,807 L 263,807 L 264,806 L 268,806 L 287,787 L 287,786 L 290,783 L 290,777 L 291,776 L 291,771 L 292,770 L 292,769 L 293,768 L 293,767 L 294,766 L 294,765 L 295,764 L 295,763 L 298,760 L 298,759 L 311,746 L 312,746 L 314,744 L 315,744 L 317,742 L 318,742 L 319,741 L 320,741 L 321,740 L 322,740 L 328,734 L 328,733 L 327,733 L 320,726 L 320,725 L 311,716 L 311,715 L 302,706 L 301,706 L 284,689 L 284,688 L 281,685 L 280,685 L 261,666 L 260,666 L 256,662 Z" fill="black" /><path d="M 294,618 L 288,624 L 288,625 L 273,640 L 273,641 L 267,647 L 267,648 L 263,652 L 263,653 L 262,654 L 262,655 L 272,665 L 272,666 L 296,690 L 297,690 L 302,695 L 303,695 L 309,701 L 310,701 L 319,710 L 320,710 L 326,716 L 327,716 L 337,726 L 338,726 L 339,727 L 340,727 L 348,719 L 349,719 L 358,710 L 358,709 L 371,696 L 371,694 L 368,691 L 368,690 L 362,684 L 362,683 L 361,682 L 360,682 L 320,642 L 319,642 L 313,636 L 312,636 L 302,626 L 302,625 L 295,618 Z" fill="black" /><path d="M 338,573 L 303,608 L 303,609 L 302,610 L 306,614 L 306,615 L 313,622 L 313,623 L 333,643 L 334,643 L 336,645 L 337,645 L 349,657 L 349,658 L 364,673 L 365,673 L 370,678 L 371,678 L 380,687 L 381,687 L 383,685 L 384,685 L 408,661 L 408,660 L 416,652 L 416,650 L 415,650 L 392,627 L 391,627 L 357,593 L 357,592 Z" fill="black" /><path d="M 897,93 L 895,95 L 894,95 L 892,97 L 891,97 L 888,100 L 887,100 L 885,102 L 884,102 L 881,105 L 880,105 L 877,108 L 876,108 L 873,111 L 872,111 L 869,114 L 868,114 L 866,116 L 865,116 L 862,119 L 861,119 L 858,122 L 857,122 L 854,125 L 853,125 L 851,127 L 850,127 L 847,130 L 846,130 L 843,133 L 842,133 L 839,136 L 838,136 L 835,139 L 834,139 L 832,141 L 831,141 L 828,144 L 827,144 L 826,145 L 825,145 L 822,148 L 821,148 L 819,150 L 818,150 L 815,153 L 814,153 L 811,156 L 810,156 L 808,158 L 807,158 L 804,161 L 803,161 L 800,164 L 799,164 L 797,166 L 796,166 L 793,169 L 792,169 L 790,171 L 789,171 L 785,175 L 784,175 L 782,177 L 781,177 L 778,180 L 777,180 L 774,183 L 773,183 L 770,186 L 769,186 L 766,189 L 765,189 L 762,192 L 761,192 L 758,195 L 757,195 L 754,198 L 753,198 L 749,202 L 748,202 L 743,207 L 742,207 L 731,218 L 730,218 L 520,428 L 520,429 L 513,436 L 500,423 L 500,422 L 470,392 L 469,392 L 323,246 L 322,246 L 312,236 L 312,235 L 311,235 L 310,234 L 310,233 L 304,227 L 303,227 L 291,215 L 291,214 L 290,213 L 289,213 L 281,205 L 280,205 L 276,201 L 275,201 L 271,197 L 270,197 L 267,194 L 266,194 L 263,191 L 262,191 L 259,188 L 258,188 L 256,186 L 255,186 L 252,183 L 251,183 L 248,180 L 247,180 L 244,177 L 243,177 L 240,174 L 239,174 L 237,172 L 236,172 L 233,169 L 232,169 L 229,166 L 228,166 L 226,164 L 225,164 L 222,161 L 221,161 L 218,158 L 217,158 L 215,156 L 214,156 L 211,153 L 210,153 L 208,151 L 207,151 L 204,148 L 203,148 L 200,145 L 199,145 L 196,142 L 195,142 L 193,140 L 192,140 L 189,137 L 188,137 L 186,135 L 185,135 L 182,132 L 181,132 L 179,130 L 178,130 L 175,127 L 174,127 L 171,124 L 170,124 L 168,122 L 167,122 L 165,120 L 164,120 L 161,117 L 160,117 L 157,114 L 156,114 L 154,112 L 153,112 L 150,109 L 149,109 L 146,106 L 145,106 L 143,104 L 142,104 L 140,102 L 139,102 L 138,101 L 137,101 L 134,98 L 133,98 L 132,97 L 131,97 L 129,95 L 127,95 L 127,109 L 126,110 L 126,139 L 127,140 L 127,151 L 128,152 L 128,158 L 129,159 L 129,164 L 130,165 L 130,169 L 131,170 L 131,174 L 132,175 L 132,179 L 133,180 L 133,184 L 134,185 L 134,188 L 135,189 L 135,192 L 136,193 L 136,196 L 137,197 L 137,199 L 138,200 L 138,202 L 139,203 L 139,205 L 140,206 L 140,209 L 141,210 L 141,212 L 142,213 L 142,215 L 143,216 L 143,217 L 144,218 L 144,220 L 145,221 L 145,223 L 146,224 L 146,225 L 147,226 L 147,228 L 148,229 L 148,230 L 149,231 L 149,232 L 150,233 L 150,234 L 151,235 L 151,236 L 152,237 L 152,239 L 153,240 L 153,241 L 154,242 L 154,243 L 155,244 L 155,245 L 156,246 L 156,247 L 158,249 L 158,250 L 159,251 L 159,252 L 160,253 L 160,254 L 161,255 L 161,256 L 163,258 L 163,259 L 164,260 L 164,261 L 166,263 L 166,264 L 168,266 L 168,267 L 170,269 L 170,270 L 172,272 L 172,273 L 174,275 L 174,276 L 177,279 L 177,280 L 180,283 L 180,284 L 184,288 L 184,289 L 189,294 L 189,295 L 198,304 L 198,305 L 297,404 L 298,404 L 314,420 L 314,421 L 324,431 L 325,431 L 355,461 L 356,461 L 357,462 L 357,463 L 370,476 L 371,476 L 375,480 L 375,481 L 389,495 L 390,495 L 391,496 L 391,497 L 392,497 L 394,499 L 394,500 L 412,518 L 412,519 L 410,521 L 409,521 L 401,529 L 400,529 L 399,528 L 397,528 L 380,511 L 379,511 L 369,501 L 368,501 L 365,498 L 364,498 L 362,496 L 362,494 L 359,491 L 356,491 L 355,490 L 353,490 L 344,499 L 344,500 L 343,501 L 343,506 L 345,508 L 345,509 L 346,509 L 360,523 L 361,523 L 369,531 L 370,531 L 377,538 L 377,539 L 376,540 L 375,540 L 360,555 L 359,555 L 355,559 L 354,559 L 346,567 L 347,568 L 347,569 L 360,582 L 361,582 L 365,586 L 366,585 L 367,585 L 369,583 L 370,583 L 373,580 L 375,582 L 375,583 L 411,619 L 411,620 L 409,622 L 408,622 L 404,626 L 405,627 L 405,628 L 406,629 L 406,630 L 408,632 L 408,633 L 409,634 L 410,634 L 421,645 L 422,645 L 425,642 L 425,641 L 431,635 L 431,634 L 438,627 L 438,626 L 440,624 L 440,623 L 449,614 L 449,613 L 450,612 L 450,611 L 452,609 L 456,613 L 457,613 L 458,614 L 458,615 L 462,619 L 463,619 L 480,636 L 481,636 L 482,637 L 483,637 L 484,638 L 485,638 L 486,639 L 489,639 L 490,638 L 491,638 L 496,633 L 496,632 L 497,631 L 497,625 L 494,622 L 494,621 L 481,608 L 481,607 L 470,596 L 470,595 L 469,594 L 469,589 L 470,588 L 470,587 L 478,579 L 479,579 L 486,572 L 487,572 L 488,571 L 490,571 L 491,570 L 494,570 L 495,569 L 500,569 L 501,570 L 502,570 L 505,573 L 506,573 L 530,597 L 530,598 L 536,604 L 536,605 L 538,607 L 538,608 L 540,610 L 540,611 L 542,613 L 542,614 L 545,617 L 545,618 L 550,623 L 550,624 L 556,630 L 556,631 L 561,636 L 561,637 L 580,656 L 580,657 L 598,675 L 598,676 L 624,702 L 625,702 L 630,707 L 631,707 L 634,710 L 635,710 L 639,714 L 640,714 L 644,718 L 645,718 L 650,723 L 651,723 L 660,732 L 661,732 L 671,742 L 672,742 L 673,743 L 674,743 L 676,745 L 677,745 L 678,746 L 679,746 L 680,747 L 681,747 L 683,749 L 684,749 L 685,750 L 686,750 L 689,753 L 690,753 L 695,758 L 696,758 L 700,762 L 701,762 L 708,769 L 709,769 L 718,778 L 718,789 L 719,790 L 719,792 L 720,792 L 727,799 L 728,799 L 733,804 L 734,804 L 741,811 L 751,811 L 752,810 L 757,810 L 758,809 L 760,809 L 761,808 L 762,808 L 763,807 L 764,807 L 765,806 L 766,806 L 767,805 L 768,805 L 793,780 L 793,779 L 813,759 L 814,759 L 836,737 L 836,735 L 835,734 L 835,731 L 834,730 L 834,729 L 830,725 L 830,724 L 820,714 L 819,714 L 814,709 L 812,709 L 811,708 L 805,708 L 804,707 L 798,707 L 797,706 L 796,706 L 765,675 L 765,674 L 760,669 L 760,668 L 753,661 L 753,660 L 730,637 L 730,636 L 718,624 L 718,623 L 701,606 L 700,606 L 662,568 L 661,568 L 642,549 L 641,549 L 639,547 L 639,546 L 640,545 L 641,545 L 677,509 L 678,509 L 678,508 L 681,505 L 681,501 L 677,497 L 677,496 L 674,493 L 674,492 L 671,492 L 670,491 L 666,491 L 664,493 L 663,493 L 657,499 L 656,499 L 651,504 L 650,504 L 647,507 L 647,508 L 621,534 L 620,534 L 609,523 L 611,521 L 612,521 L 717,416 L 717,415 L 764,368 L 764,367 L 819,312 L 819,311 L 834,296 L 834,295 L 839,290 L 839,289 L 843,285 L 843,284 L 847,280 L 847,279 L 850,276 L 850,275 L 852,273 L 852,272 L 854,270 L 854,269 L 856,267 L 856,266 L 858,264 L 858,263 L 860,261 L 860,260 L 861,259 L 861,258 L 863,256 L 863,255 L 864,254 L 864,253 L 865,252 L 865,251 L 867,249 L 867,248 L 868,247 L 868,246 L 869,245 L 869,244 L 870,243 L 870,242 L 871,241 L 871,240 L 872,239 L 872,238 L 873,237 L 873,236 L 874,235 L 874,234 L 875,233 L 875,232 L 876,231 L 876,230 L 877,229 L 877,227 L 878,226 L 878,225 L 879,224 L 879,223 L 880,222 L 880,220 L 881,219 L 881,217 L 882,216 L 882,214 L 883,213 L 883,212 L 884,211 L 884,209 L 885,208 L 885,206 L 886,205 L 886,203 L 887,202 L 887,200 L 888,199 L 888,196 L 889,195 L 889,192 L 890,191 L 890,189 L 891,188 L 891,185 L 892,184 L 892,180 L 893,179 L 893,176 L 894,175 L 894,171 L 895,170 L 895,167 L 896,166 L 896,160 L 897,159 L 897,152 L 898,151 L 898,140 L 899,139 L 899,103 L 898,102 L 898,93 Z" fill="black" /></svg>